
<svg version="1.1" id="Layer_1" xmlns="http://www.w3.org/2000/svg" xmlns:xlink="http://www.w3.org/1999/xlink" x="0px" y="0px"
	 width="100%" viewBox="0 0 1080 1080" enable-background="new 0 0 1080 1080" xml:space="preserve">
<path fill="#FFFFFF" opacity="1.000000" stroke="none" 
	d="
M999.000000,1081.000000 
	C666.000000,1081.000000 333.500000,1081.000000 1.000000,1081.000000 
	C1.000000,721.000000 1.000000,361.000000 1.000000,1.000000 
	C361.000000,1.000000 721.000000,1.000000 1081.000000,1.000000 
	C1081.000000,361.000000 1081.000000,721.000000 1081.000000,1081.000000 
	C1053.833374,1081.000000 1026.666626,1081.000000 999.000000,1081.000000 
M449.681152,595.736023 
	C456.656616,592.923584 462.503998,588.416809 466.397064,582.132446 
	C473.717651,570.315369 480.396942,558.102356 487.421295,546.099792 
	C490.758362,540.397827 493.991241,534.601807 497.777802,529.203674 
	C503.508942,521.033447 512.240173,517.592590 523.205872,515.565613 
	C520.204590,510.030396 518.238403,504.886719 515.008606,500.723114 
	C503.895660,486.396942 486.117340,481.160248 469.138397,487.435974 
	C460.533447,490.616608 453.018738,495.687195 448.416443,504.301849 
	C444.524292,511.587189 440.026245,518.547974 435.827881,525.670959 
	C433.896820,528.947144 432.200989,529.238953 430.200043,525.639343 
	C426.660492,519.271851 422.762329,513.100159 419.322601,506.681274 
	C408.649963,486.765137 382.893158,478.687866 362.796082,490.289673 
	C361.261169,491.175751 358.565277,490.500275 356.541626,490.006775 
	C350.172699,488.453613 343.916534,485.417847 337.527466,485.158936 
	C318.656830,484.394196 302.908539,496.629608 297.387939,515.141113 
	C297.609894,515.346313 297.818481,515.697144 298.100128,515.771667 
	C299.218414,516.067322 300.364410,516.255737 301.491425,516.521179 
	C310.537994,518.651794 318.517609,522.906433 323.410919,530.870056 
	C332.336151,545.395447 341.047211,560.091309 349.018524,575.154785 
	C360.855286,597.522888 384.333496,605.512085 406.686798,594.323730 
	C408.600006,593.366089 411.899017,593.711487 413.936768,594.710754 
	C425.502380,600.382385 437.082703,601.352661 449.681152,595.736023 
M674.339905,595.008484 
	C677.771118,595.521179 677.020691,593.042358 677.023804,591.187988 
	C677.043396,579.359924 677.768616,567.470581 676.789551,555.724121 
	C676.071533,547.108765 680.358032,542.811951 686.647827,539.180237 
	C696.088684,533.729065 701.794006,536.838928 701.950867,547.667542 
	C702.158386,561.991638 702.041809,576.320312 702.084412,590.647034 
	C702.088623,592.069580 702.231140,593.491760 702.297302,594.692383 
	C708.382629,594.692383 713.972046,594.692383 719.830383,594.692383 
	C719.830383,579.910522 719.804871,565.443054 719.866577,550.975952 
	C719.873352,549.385620 719.810242,547.089050 720.753235,546.330750 
	C724.847229,543.038574 728.955994,539.350220 733.713074,537.401123 
	C739.768188,534.920166 743.519165,537.505859 744.101135,544.042603 
	C744.807922,551.981323 744.768066,559.993896 744.870422,567.976929 
	C744.984863,576.902344 744.896729,585.830444 744.896729,594.717407 
	C751.024292,594.717407 756.586060,594.717407 762.016724,594.717407 
	C762.016724,576.126099 762.519043,557.808472 761.850647,539.533630 
	C761.355957,526.008911 752.178345,519.616150 738.656067,521.471619 
	C730.375671,522.607849 724.580811,527.781982 718.330383,533.259766 
	C715.537903,523.231689 707.970581,521.217163 699.277771,521.216797 
	C690.413452,521.216492 683.686340,525.893372 676.866699,532.626770 
	C676.866699,528.818237 676.866699,526.117004 676.866699,523.612671 
	C670.751404,523.612671 665.193542,523.612671 659.633606,523.612671 
	C659.633606,547.576111 659.633606,571.158020 659.633606,595.008667 
	C664.401672,595.008667 668.883911,595.008667 674.339905,595.008484 
M576.132629,523.584778 
	C570.450500,525.376587 565.590759,528.291321 562.162842,533.875366 
	C566.672729,536.759766 571.092651,539.586670 575.594177,542.465759 
	C581.000244,535.794434 588.019104,534.569092 595.631531,535.534912 
	C604.216309,536.624084 606.450378,539.671875 605.659851,548.908752 
	C601.763123,549.287842 597.749695,549.364868 593.869446,550.123169 
	C586.573975,551.548889 578.991821,552.476135 572.195740,555.246521 
	C563.463440,558.806274 559.815125,567.828918 561.139893,578.252991 
	C562.326111,587.586914 568.146667,594.105530 577.344055,596.243347 
	C586.624939,598.400452 595.160095,596.631409 602.942871,591.150024 
	C604.226746,590.245850 605.547424,589.393860 607.180237,588.296509 
	C607.387329,590.852600 607.544434,592.792297 607.705994,594.787231 
	C613.088379,594.787231 618.183838,594.787231 623.197510,594.787231 
	C623.197510,576.626221 623.644287,558.672668 623.018982,540.756592 
	C622.679199,531.021912 617.023499,525.449951 607.485901,523.027283 
	C597.284912,520.436096 587.046143,520.596802 576.132629,523.584778 
M498.789551,582.649597 
	C502.560455,589.449585 508.341492,594.304077 515.833618,595.272156 
	C524.448181,596.385315 533.349304,596.464478 542.007446,595.681946 
	C548.911438,595.057922 554.576172,590.927002 558.689636,584.643188 
	C554.279175,581.513794 550.117676,578.561096 546.022522,575.655396 
	C537.886658,582.840942 528.937927,583.271118 519.710876,579.591248 
	C514.468079,577.500366 511.882965,571.036133 512.587952,563.680298 
	C528.112549,563.680298 543.681946,563.680298 560.378540,563.680298 
	C559.476440,555.791199 559.363953,548.251099 557.618347,541.110229 
	C555.130127,530.931152 548.114990,524.005493 537.714844,522.458130 
	C530.652710,521.407410 523.102234,521.773315 516.041687,523.030457 
	C506.331421,524.759338 499.834534,531.308838 496.814850,540.686340 
	C492.338318,554.587769 492.315826,568.457703 498.789551,582.649597 
M650.037720,520.500000 
	C650.037720,511.433990 650.037720,502.367981 650.037720,493.538940 
	C643.713501,493.538940 638.158081,493.538940 632.570679,493.538940 
	C632.570679,527.477356 632.570679,561.030518 632.570679,594.683655 
	C638.507751,594.683655 644.209229,594.683655 650.037720,594.683655 
	C650.037720,570.070068 650.037720,545.785034 650.037720,520.500000 
M781.453125,523.226746 
	C778.190552,523.226746 774.927979,523.226746 771.609802,523.226746 
	C771.609802,547.517029 771.609802,571.104187 771.609802,594.802734 
	C777.474426,594.802734 783.066895,594.802734 788.691040,594.802734 
	C788.691040,570.888733 788.691040,547.186035 788.691040,523.226807 
	C786.369080,523.226807 784.391357,523.226807 781.453125,523.226746 
M789.192932,508.343475 
	C789.459412,506.396484 790.021240,504.436371 789.935425,502.505066 
	C789.703186,497.275513 786.964478,495.076385 780.930969,494.907623 
	C773.933594,494.711884 771.168762,496.574219 770.628662,502.107208 
	C770.263611,505.846344 770.479065,509.561676 774.317810,511.654663 
	C778.699829,514.043823 785.117188,512.833801 789.192932,508.343475 
z"/>
<path fill="#121212" opacity="1.000000" stroke="none" 
	d="
M449.327850,595.859375 
	C437.082703,601.352661 425.502380,600.382385 413.936768,594.710754 
	C411.899017,593.711487 408.600006,593.366089 406.686798,594.323730 
	C384.333496,605.512085 360.855286,597.522888 349.018524,575.154785 
	C341.047211,560.091309 332.336151,545.395447 323.410919,530.870056 
	C318.517609,522.906433 310.537994,518.651794 301.491425,516.521179 
	C300.364410,516.255737 299.218414,516.067322 298.100128,515.771667 
	C297.818481,515.697144 297.609894,515.346313 297.387939,515.141113 
	C302.908539,496.629608 318.656830,484.394196 337.527466,485.158936 
	C343.916534,485.417847 350.172699,488.453613 356.541626,490.006775 
	C358.565277,490.500275 361.261169,491.175751 362.796082,490.289673 
	C382.893158,478.687866 408.649963,486.765137 419.322601,506.681274 
	C422.762329,513.100159 426.660492,519.271851 430.200043,525.639343 
	C432.200989,529.238953 433.896820,528.947144 435.827881,525.670959 
	C440.026245,518.547974 444.524292,511.587189 448.416443,504.301849 
	C453.018738,495.687195 460.533447,490.616608 469.138397,487.435974 
	C486.117340,481.160248 503.895660,486.396942 515.008606,500.723114 
	C518.238403,504.886719 520.204590,510.030396 523.205872,515.565613 
	C512.240173,517.592590 503.508942,521.033447 497.777802,529.203674 
	C493.991241,534.601807 490.758362,540.397827 487.421295,546.099792 
	C480.396942,558.102356 473.717651,570.315369 466.397064,582.132446 
	C462.503998,588.416809 456.656616,592.923584 449.327850,595.859375 
M404.387787,510.180939 
	C397.407074,500.975159 385.559326,497.250519 374.592255,500.764465 
	C371.194855,501.852997 370.560455,503.817413 372.338959,506.822540 
	C376.799652,514.359741 381.230469,521.914673 385.648499,529.476990 
	C393.929321,543.651306 402.086853,557.899048 410.493866,571.997986 
	C418.444611,585.331726 436.218964,588.946533 448.168610,580.022522 
	C450.815948,578.045532 450.746674,577.231812 448.220001,574.916504 
	C442.775909,569.927856 436.900055,564.943054 433.019928,558.806519 
	C423.100433,543.118469 414.176697,526.800842 404.387787,510.180939 
M360.516663,514.021606 
	C351.969208,498.526978 334.793243,496.332764 322.895660,503.344299 
	C318.599030,505.876373 318.942444,506.670380 322.578979,509.982483 
	C327.425537,514.396545 332.545319,518.911011 336.013672,524.359009 
	C344.634644,537.900757 352.472076,551.946960 360.451233,565.889465 
	C364.538269,573.031128 368.804993,579.717285 376.920166,583.097351 
	C383.648712,585.899780 394.402100,585.125000 399.112701,580.664062 
	C386.368286,558.719482 373.583923,536.706177 360.516663,514.021606 
M490.498230,500.505402 
	C475.654205,497.774323 466.247650,502.014771 458.728729,514.942627 
	C453.488495,523.952515 448.231140,532.957031 443.264069,542.117188 
	C442.388000,543.732788 442.015076,546.754028 442.934418,548.011230 
	C446.605713,553.031982 450.757568,557.723755 454.970428,562.318298 
	C457.965302,565.584473 460.368134,564.299927 462.325104,560.828552 
	C466.720398,553.032166 471.274567,545.325500 475.693756,537.542419 
	C481.913513,526.588257 487.644501,515.260437 499.186127,508.614105 
	C499.806488,508.256897 500.062439,507.266998 500.860718,505.962677 
	C497.580688,504.149872 494.446198,502.417450 490.498230,500.505402 
z"/>
<path fill="#050505" opacity="1.000000" stroke="none" 
	d="
M673.853027,595.008545 
	C668.883911,595.008667 664.401672,595.008667 659.633606,595.008667 
	C659.633606,571.158020 659.633606,547.576111 659.633606,523.612671 
	C665.193542,523.612671 670.751404,523.612671 676.866699,523.612671 
	C676.866699,526.117004 676.866699,528.818237 676.866699,532.626770 
	C683.686340,525.893372 690.413452,521.216492 699.277771,521.216797 
	C707.970581,521.217163 715.537903,523.231689 718.330383,533.259766 
	C724.580811,527.781982 730.375671,522.607849 738.656067,521.471619 
	C752.178345,519.616150 761.355957,526.008911 761.850647,539.533630 
	C762.519043,557.808472 762.016724,576.126099 762.016724,594.717407 
	C756.586060,594.717407 751.024292,594.717407 744.896729,594.717407 
	C744.896729,585.830444 744.984863,576.902344 744.870422,567.976929 
	C744.768066,559.993896 744.807922,551.981323 744.101135,544.042603 
	C743.519165,537.505859 739.768188,534.920166 733.713074,537.401123 
	C728.955994,539.350220 724.847229,543.038574 720.753235,546.330750 
	C719.810242,547.089050 719.873352,549.385620 719.866577,550.975952 
	C719.804871,565.443054 719.830383,579.910522 719.830383,594.692383 
	C713.972046,594.692383 708.382629,594.692383 702.297302,594.692383 
	C702.231140,593.491760 702.088623,592.069580 702.084412,590.647034 
	C702.041809,576.320312 702.158386,561.991638 701.950867,547.667542 
	C701.794006,536.838928 696.088684,533.729065 686.647827,539.180237 
	C680.358032,542.811951 676.071533,547.108765 676.789551,555.724121 
	C677.768616,567.470581 677.043396,579.359924 677.023804,591.187988 
	C677.020691,593.042358 677.771118,595.521179 673.853027,595.008545 
z"/>
<path fill="#050505" opacity="1.000000" stroke="none" 
	d="
M576.492920,523.413513 
	C587.046143,520.596802 597.284912,520.436096 607.485901,523.027283 
	C617.023499,525.449951 622.679199,531.021912 623.018982,540.756592 
	C623.644287,558.672668 623.197510,576.626221 623.197510,594.787231 
	C618.183838,594.787231 613.088379,594.787231 607.705994,594.787231 
	C607.544434,592.792297 607.387329,590.852600 607.180237,588.296509 
	C605.547424,589.393860 604.226746,590.245850 602.942871,591.150024 
	C595.160095,596.631409 586.624939,598.400452 577.344055,596.243347 
	C568.146667,594.105530 562.326111,587.586914 561.139893,578.252991 
	C559.815125,567.828918 563.463440,558.806274 572.195740,555.246521 
	C578.991821,552.476135 586.573975,551.548889 593.869446,550.123169 
	C597.749695,549.364868 601.763123,549.287842 605.659851,548.908752 
	C606.450378,539.671875 604.216309,536.624084 595.631531,535.534912 
	C588.019104,534.569092 581.000244,535.794434 575.594177,542.465759 
	C571.092651,539.586670 566.672729,536.759766 562.162842,533.875366 
	C565.590759,528.291321 570.450500,525.376587 576.492920,523.413513 
M587.750061,583.012573 
	C594.299316,583.323730 599.515320,580.124207 604.539429,576.524414 
	C605.233398,576.027161 605.899475,574.971924 605.927917,574.152405 
	C606.069214,570.086243 605.992371,566.012451 605.992371,561.032104 
	C598.579102,562.493408 591.834351,563.390198 585.363831,565.244141 
	C580.723999,566.573547 578.897827,570.654541 579.183838,575.469788 
	C579.470520,580.297302 582.417786,582.444763 587.750061,583.012573 
z"/>
<path fill="#050505" opacity="1.000000" stroke="none" 
	d="
M498.585693,582.338379 
	C492.315826,568.457703 492.338318,554.587769 496.814850,540.686340 
	C499.834534,531.308838 506.331421,524.759338 516.041687,523.030457 
	C523.102234,521.773315 530.652710,521.407410 537.714844,522.458130 
	C548.114990,524.005493 555.130127,530.931152 557.618347,541.110229 
	C559.363953,548.251099 559.476440,555.791199 560.378540,563.680298 
	C543.681946,563.680298 528.112549,563.680298 512.587952,563.680298 
	C511.882965,571.036133 514.468079,577.500366 519.710876,579.591248 
	C528.937927,583.271118 537.886658,582.840942 546.022522,575.655396 
	C550.117676,578.561096 554.279175,581.513794 558.689636,584.643188 
	C554.576172,590.927002 548.911438,595.057922 542.007446,595.681946 
	C533.349304,596.464478 524.448181,596.385315 515.833618,595.272156 
	C508.341492,594.304077 502.560455,589.449585 498.585693,582.338379 
M517.415710,538.871887 
	C514.229370,542.458435 512.761780,546.601990 512.902405,551.503052 
	C522.770935,551.503052 532.189209,551.503052 541.991882,551.503052 
	C542.142700,545.773621 541.283142,540.478088 536.194763,537.473206 
	C530.160706,533.909790 523.854553,534.227661 517.415710,538.871887 
z"/>
<path fill="#060606" opacity="1.000000" stroke="none" 
	d="
M650.037720,521.000000 
	C650.037720,545.785034 650.037720,570.070068 650.037720,594.683655 
	C644.209229,594.683655 638.507751,594.683655 632.570679,594.683655 
	C632.570679,561.030518 632.570679,527.477356 632.570679,493.538940 
	C638.158081,493.538940 643.713501,493.538940 650.037720,493.538940 
	C650.037720,502.367981 650.037720,511.433990 650.037720,521.000000 
z"/>
<path fill="#060606" opacity="1.000000" stroke="none" 
	d="
M781.933350,523.226807 
	C784.391357,523.226807 786.369080,523.226807 788.691040,523.226807 
	C788.691040,547.186035 788.691040,570.888733 788.691040,594.802734 
	C783.066895,594.802734 777.474426,594.802734 771.609802,594.802734 
	C771.609802,571.104187 771.609802,547.517029 771.609802,523.226746 
	C774.927979,523.226746 778.190552,523.226746 781.933350,523.226807 
z"/>
<path fill="#060606" opacity="1.000000" stroke="none" 
	d="
M789.048950,508.716766 
	C785.117188,512.833801 778.699829,514.043823 774.317810,511.654663 
	C770.479065,509.561676 770.263611,505.846344 770.628662,502.107208 
	C771.168762,496.574219 773.933594,494.711884 780.930969,494.907623 
	C786.964478,495.076385 789.703186,497.275513 789.935425,502.505066 
	C790.021240,504.436371 789.459412,506.396484 789.048950,508.716766 
z"/>
<path fill="#F2F2F2" opacity="1.000000" stroke="none" 
	d="
M404.621216,510.457977 
	C414.176697,526.800842 423.100433,543.118469 433.019928,558.806519 
	C436.900055,564.943054 442.775909,569.927856 448.220001,574.916504 
	C450.746674,577.231812 450.815948,578.045532 448.168610,580.022522 
	C436.218964,588.946533 418.444611,585.331726 410.493866,571.997986 
	C402.086853,557.899048 393.929321,543.651306 385.648499,529.476990 
	C381.230469,521.914673 376.799652,514.359741 372.338959,506.822540 
	C370.560455,503.817413 371.194855,501.852997 374.592255,500.764465 
	C385.559326,497.250519 397.407074,500.975159 404.621216,510.457977 
z"/>
<path fill="#F2F2F2" opacity="1.000000" stroke="none" 
	d="
M360.658112,514.357178 
	C373.583923,536.706177 386.368286,558.719482 399.112701,580.664062 
	C394.402100,585.125000 383.648712,585.899780 376.920166,583.097351 
	C368.804993,579.717285 364.538269,573.031128 360.451233,565.889465 
	C352.472076,551.946960 344.634644,537.900757 336.013672,524.359009 
	C332.545319,518.911011 327.425537,514.396545 322.578979,509.982483 
	C318.942444,506.670380 318.599030,505.876373 322.895660,503.344299 
	C334.793243,496.332764 351.969208,498.526978 360.658112,514.357178 
z"/>
<path fill="#F2F2F2" opacity="1.000000" stroke="none" 
	d="
M490.904968,500.595215 
	C494.446198,502.417450 497.580688,504.149872 500.860718,505.962677 
	C500.062439,507.266998 499.806488,508.256897 499.186127,508.614105 
	C487.644501,515.260437 481.913513,526.588257 475.693756,537.542419 
	C471.274567,545.325500 466.720398,553.032166 462.325104,560.828552 
	C460.368134,564.299927 457.965302,565.584473 454.970428,562.318298 
	C450.757568,557.723755 446.605713,553.031982 442.934418,548.011230 
	C442.015076,546.754028 442.388000,543.732788 443.264069,542.117188 
	C448.231140,532.957031 453.488495,523.952515 458.728729,514.942627 
	C466.247650,502.014771 475.654205,497.774323 490.904968,500.595215 
z"/>
<path fill="#FFFFFF" opacity="1.000000" stroke="none" 
	d="
M587.331543,582.988647 
	C582.417786,582.444763 579.470520,580.297302 579.183838,575.469788 
	C578.897827,570.654541 580.723999,566.573547 585.363831,565.244141 
	C591.834351,563.390198 598.579102,562.493408 605.992371,561.032104 
	C605.992371,566.012451 606.069214,570.086243 605.927917,574.152405 
	C605.899475,574.971924 605.233398,576.027161 604.539429,576.524414 
	C599.515320,580.124207 594.299316,583.323730 587.331543,582.988647 
z"/>
<path fill="#F2F2F2" opacity="1.000000" stroke="none" 
	d="
M517.686157,538.607666 
	C523.854553,534.227661 530.160706,533.909790 536.194763,537.473206 
	C541.283142,540.478088 542.142700,545.773621 541.991882,551.503052 
	C532.189209,551.503052 522.770935,551.503052 512.902405,551.503052 
	C512.761780,546.601990 514.229370,542.458435 517.686157,538.607666 
z"/>
</svg>
